<svg width="60" height="49" viewBox="0 0 60 49" fill="none" xmlns="http://www.w3.org/2000/svg">
<path d="M30 0C14.8902 0 0 5.91187 0 12.7002C0 18.5293 0 19.0675 0 19.1038C0 20.6469 1.25039 21.8973 2.79352 21.8973H13.4109C14.9541 21.8973 16.2043 20.6469 16.2043 19.1038V14.2855C16.2043 12.8793 17.2508 11.6919 18.6454 11.5144C18.6454 11.5144 22.4679 10.7292 30 10.7292C37.5321 10.7292 41.3545 11.5144 41.3545 11.5144C42.7492 11.6918 43.7955 12.8793 43.7955 14.2855V19.1039C43.7955 20.647 45.0459 21.8974 46.5889 21.8974H57.2064C58.7495 21.8974 59.9999 20.647 59.9999 19.1039C59.9999 19.0675 59.9999 18.5293 59.9999 12.7003C60 5.91188 45.1099 0 30 0Z" fill="#9A9A9A"/>
<path d="M40.8399 19.1039V14.4266L40.7594 14.41C40.7305 14.4042 37.0622 13.6853 30.0002 13.6853C22.9382 13.6853 19.27 14.4041 19.2335 14.4116L19.1606 14.4265V19.1039C19.1606 22.2747 16.5811 24.8534 13.4111 24.8534H6.02246V41.4931C6.02246 45.6074 9.35738 48.9422 13.4709 48.9422H46.5295C50.643 48.9422 53.9779 45.6073 53.9779 41.4931V24.8534H46.5893C43.4193 24.8534 40.8399 22.2747 40.8399 19.1039ZM38.7959 37.6084V41.5834H34.8218V37.6084H38.7959ZM38.7959 31.3225V35.2976H34.8218V31.3225H38.7959ZM38.7959 25.0375V29.0117H34.8218V25.0375H38.7959ZM31.9877 37.6084V41.5834H28.0135V37.6084H31.9877ZM31.9877 31.3225V35.2976H28.0135V31.3225H31.9877ZM28.0135 29.0117V25.0375H31.9877V29.0117H28.0135ZM25.1795 37.6084V41.5834H21.2053V37.6084H25.1795ZM25.1795 31.3225V35.2976H21.2053V31.3225H25.1795ZM25.1795 25.0375V29.0117H21.2053V25.0375H25.1795Z" fill="#9A9A9A"/>
</svg>
